<svg width="54" height="54" viewBox="0 0 54 54" fill="none" xmlns="http://www.w3.org/2000/svg">
<path d="M26.9736 0C27.672 0 28.3836 0 29.082 0C29.1742 0.0263543 29.2665 0.079063 29.3719 0.0922401C33.4832 0.724744 36.3294 2.97804 37.8712 6.83895C38.0425 7.26061 38.2665 7.47145 38.6881 7.59004C43.3924 9.02635 48.0966 10.489 52.8141 11.9253C53.3016 12.0703 53.7233 12.2811 53.9605 12.7555C53.9605 12.9663 53.9605 13.1772 53.9605 13.388C53.7101 13.6779 53.4861 13.981 53.2094 14.2577C51.4305 16.0498 49.6384 17.8287 47.8594 19.6208C47.7277 19.7526 47.5959 19.8843 47.3851 20.1215C47.5827 20.2665 47.754 20.3587 47.899 20.4905C49.6779 22.2562 51.4436 24.0351 53.2094 25.8141C53.4729 26.0776 53.7101 26.3939 53.9605 26.6837C53.9605 26.8946 53.9605 27.1054 53.9605 27.3163C53.7101 27.7906 53.3016 27.9883 52.8141 28.1464C51.0351 28.6867 49.2694 29.2665 47.4905 29.8067C47.0952 29.9253 46.9898 30.0966 46.9898 30.4919C47.0029 35.7233 47.0029 40.9546 47.0029 46.1859C47.0029 47.1874 46.8316 47.4378 45.8697 47.754C41.2972 49.2826 36.7247 50.798 32.1523 52.3265C30.5315 52.8668 28.9107 53.4334 27.2899 54C27.0791 54 26.8682 54 26.6574 54C26.5124 53.9341 26.3807 53.855 26.2357 53.8023C20.8858 51.7994 15.5359 49.7833 10.1859 47.7804C9.18448 47.4114 9.05271 47.2138 9.05271 46.1596C9.05271 41.1259 9.05271 36.0791 9.05271 31.0454C9.05271 30.8346 9.05271 30.6237 9.05271 30.3997C7.18155 29.7804 5.33675 29.1611 3.49195 28.5417C2.49048 28.1991 2.25329 27.5798 2.79356 26.6837C3.25476 25.8931 3.72914 25.1157 4.20351 24.3382C5.0205 22.9678 5.83748 21.5974 6.72035 20.1479C6.56223 20.0293 6.39092 19.9239 6.25915 19.7921C4.41435 17.9605 2.58272 16.1157 0.751098 14.284C0.487555 14.0073 0.250366 13.7042 0 13.4143C0 13.2035 0 12.9927 0 12.7818C0.250366 12.2943 0.698389 12.0966 1.19912 11.9385C6.73353 10.2255 12.2679 8.48609 17.8155 6.77306C18.145 6.66764 18.3294 6.49634 18.4744 6.18009C19.7262 3.50512 21.7291 1.64714 24.5095 0.658858C25.3001 0.355783 26.1435 0.210835 26.9736 0ZM28.0674 29.3982C28.0674 36.817 28.0674 44.104 28.0674 51.4436C33.7072 49.5593 39.3075 47.7013 44.8682 45.8433C44.8682 40.7438 44.8682 35.7101 44.8682 30.6369C44.6047 30.716 44.3939 30.7818 44.183 30.8477C40.5329 31.9941 36.896 33.1406 33.246 34.2738C32.4026 34.5373 32.0996 34.4451 31.5593 33.7599C30.4129 32.3368 29.2665 30.9136 28.0674 29.3982ZM25.8931 30.2548C25.7482 30.4788 25.6428 30.6237 25.5637 30.7555C24.918 31.8228 24.2855 32.8902 23.6398 33.9575C23.1127 34.8404 22.7965 34.9458 21.8214 34.6296C18.4612 33.5095 15.101 32.3895 11.7409 31.2694C11.5695 31.2167 11.3982 31.1508 11.1874 31.0849C11.1742 31.243 11.1742 31.3221 11.1742 31.4143C11.1742 36.0922 11.1742 40.757 11.1611 45.4348C11.1611 45.8302 11.3587 45.9356 11.6486 46.041C16.2343 47.754 20.8067 49.4671 25.3924 51.1933C25.5505 51.2592 25.7086 51.2987 25.9063 51.3646C25.8931 44.328 25.8931 37.3441 25.8931 30.2548ZM36.4612 10.5286C36.4217 5.81113 32.6398 2.06881 27.9356 2.12152C23.3763 2.16105 19.5681 5.98243 19.5944 10.5154C19.6208 15.2196 23.4158 19.0146 28.0674 18.9883C32.7057 18.9488 36.5007 15.1142 36.4612 10.5286ZM50.9429 26.4993C49.2694 24.8389 47.675 23.2577 46.1069 21.6501C45.7906 21.3206 45.5271 21.2679 45.1054 21.4129C40.2562 23.0469 35.3939 24.6545 30.5447 26.2753C29.9649 26.4729 29.3982 26.6706 28.7657 26.8814C30.0966 28.5417 31.4012 30.1493 32.6662 31.7833C32.9034 32.0996 33.1274 32.0996 33.4568 31.9941C36.896 30.9004 40.3485 29.8331 43.7877 28.7394C46.1332 28.0146 48.4788 27.2767 50.9429 26.4993ZM25.3924 26.9341C19.6999 25.0366 14.0864 23.1654 8.45974 21.2943C7.33968 23.1654 6.24597 24.9971 5.12592 26.8419C10.8053 28.7394 16.4187 30.6105 22.0586 32.4817C23.1786 30.6369 24.2592 28.8184 25.3924 26.9341ZM11.5168 19.9634C11.5168 20.0029 11.5168 20.0425 11.53 20.082C11.6091 20.1083 11.6881 20.1479 11.7672 20.1742C16.7218 21.8346 21.6764 23.4817 26.6442 25.1288C26.8682 25.2079 27.1713 25.1684 27.3953 25.1025C32.2709 23.4949 37.1464 21.8609 42.022 20.2401C42.1537 20.2006 42.2855 20.1215 42.47 20.0425C42.3646 19.9766 42.325 19.9502 42.2855 19.937C40.2035 19.2387 38.1347 18.5403 36.0395 17.8682C35.8682 17.8155 35.5652 17.9341 35.4202 18.0659C30.9531 22.2958 24.2855 22.0717 20.1479 17.5256C19.9239 17.2753 19.7394 17.2225 19.4363 17.328C18.2635 17.7365 17.0776 18.1318 15.8917 18.5271C14.4422 19.0015 12.9795 19.4758 11.5168 19.9634ZM3.01757 13.5593C4.75696 15.2987 6.41728 16.9722 8.10395 18.6061C8.22255 18.7116 8.52562 18.7247 8.7101 18.6589C10.6076 18.0395 12.5051 17.407 14.4026 16.7745C15.8126 16.3001 17.2225 15.8389 18.672 15.3514C17.6706 13.3353 17.328 11.2401 17.5915 9C12.7028 10.5417 7.9063 12.0307 3.01757 13.5593ZM50.9429 13.5725C46.7526 12.2811 42.6808 11.0293 38.5564 9.7511C38.6354 11.9912 38.1742 14.0337 37.0937 15.9048C37.1596 15.9707 37.1859 15.9971 37.2123 16.0102C39.9268 16.9195 42.6281 17.8287 45.3558 18.7116C45.5271 18.7643 45.8302 18.6457 45.9751 18.5007C47.0161 17.4993 48.0176 16.4714 49.0454 15.4568C49.6384 14.8507 50.2577 14.2445 50.9429 13.5725Z" fill="#73828D"/>
<path d="M22.6779 47.8726C22.5593 47.8463 22.3485 47.8067 22.1508 47.7277C20.2006 47.0029 18.2372 46.265 16.287 45.5271C15.6018 45.2635 15.2987 44.8155 15.3909 44.2753C15.5227 43.59 16.1684 43.2474 16.8931 43.511C18.9224 44.2489 20.9385 45.0132 22.9546 45.7774C23.0996 45.8302 23.2445 45.9092 23.3631 46.0015C23.7321 46.3177 23.877 46.713 23.7057 47.1742C23.5739 47.6354 23.2313 47.8594 22.6779 47.8726Z" fill="#73828D"/>
<path d="M22.6647 43.4451C21.7028 43.0498 20.7145 42.694 19.7657 42.246C19.3572 42.0483 19.265 41.4554 19.4495 41.0337C19.6471 40.5988 20.1083 40.2958 20.5564 40.4407C21.4656 40.7306 22.3748 41.0601 23.2577 41.4422C23.7189 41.6398 23.877 42.1538 23.7584 42.5886C23.6266 43.0893 23.205 43.3792 22.6647 43.4451Z" fill="#73828D"/>
<path d="M17.4729 40.0849C17.4597 40.6384 16.9458 41.1259 16.4056 41.0996C15.8521 41.0864 15.3646 40.5725 15.3909 40.0322C15.4041 39.4788 15.918 38.9912 16.4583 39.0176C17.0117 39.0308 17.4993 39.5315 17.4729 40.0849Z" fill="#73828D"/>
<path d="M26.9736 12.2943C27.5006 11.7277 27.9355 11.2533 28.3967 10.7921C29.7144 9.4612 31.0453 8.1303 32.3762 6.81259C32.9692 6.21962 33.5621 6.18008 34.0365 6.65446C34.4977 7.11566 34.4582 7.70864 33.8916 8.27525C31.8886 10.2914 29.8857 12.2943 27.8696 14.2972C27.2503 14.9034 26.71 14.9034 26.0907 14.2972C25.4714 13.7042 24.8652 13.0849 24.2722 12.4788C23.7188 11.9121 23.6924 11.306 24.1668 10.858C24.628 10.4231 25.2078 10.4495 25.7481 10.9897C26.1302 11.3719 26.4992 11.7936 26.9736 12.2943Z" fill="#73828D"/>
</svg>
