<svg width="38" height="46" viewBox="0 0 38 46" fill="none" xmlns="http://www.w3.org/2000/svg">
<path d="M19.8422 45.1503C19.3837 44.9035 18.8665 44.7272 18.4669 44.398C17.8438 43.8926 17.6088 43.152 17.6323 42.3527C17.6323 42.1293 17.6323 41.9178 17.6323 41.6239C17.4442 41.6239 17.2796 41.6239 17.115 41.6239C12.0957 41.6239 7.06466 41.6239 2.04534 41.6239C0.693536 41.6239 0.0117548 40.9421 0.0117548 39.6021C0.0117548 29.7397 0.0117548 19.8892 0 10.0269C0 9.54493 0.141058 9.19229 0.481948 8.86315C3.2796 6.0655 6.07725 3.26785 8.86315 0.470194C9.18053 0.141058 9.53318 0 9.99161 0C17.1738 0.0117548 24.356 0.0117548 31.5382 0.0117548C32.796 0.0117548 33.5013 0.717045 33.5013 1.97481C33.5013 9.69774 33.5013 17.4324 33.5013 25.1554C33.5013 25.3317 33.5013 25.508 33.5013 25.7549C33.8069 25.7549 34.089 25.7549 34.3712 25.7549C35.8523 25.7784 37.016 26.9068 37.016 28.3762C37.0277 33.0899 37.0277 37.8036 37.016 42.5173C37.016 43.7045 36.2402 44.6919 35.1 45.0328C35.0059 45.0563 34.9119 45.1033 34.8178 45.1386C29.8338 45.1503 24.838 45.1503 19.8422 45.1503ZM31.7146 25.7549C31.7146 17.7381 31.7146 9.76827 31.7146 1.79849C24.6617 1.79849 17.644 1.79849 10.5911 1.79849C10.5911 1.97481 10.5911 2.13938 10.5911 2.29219C10.5911 4.39631 10.5911 6.48867 10.5911 8.59279C10.5911 9.88582 9.89758 10.5911 8.6163 10.5911C6.50043 10.5911 4.38456 10.5911 2.26868 10.5911C2.11587 10.5911 1.96306 10.5911 1.81025 10.5911C1.81025 20.3829 1.81025 30.1159 1.81025 39.8372C7.09992 39.8372 12.3543 39.8372 17.644 39.8372C17.644 39.6491 17.644 39.4963 17.644 39.3317C17.644 35.7582 17.644 32.1965 17.644 28.623C17.644 26.8598 18.7372 25.7549 20.4887 25.7549C24.0622 25.7549 27.6239 25.7549 31.1973 25.7549C31.3619 25.7549 31.5265 25.7549 31.7146 25.7549ZM35.2763 35.4526C35.2763 33.2074 35.2763 30.9622 35.2763 28.7171C35.2763 27.812 34.9942 27.5181 34.1008 27.5181C29.5987 27.5181 25.0848 27.5181 20.5827 27.5181C19.7011 27.5181 19.4072 27.8002 19.4072 28.6701C19.4072 33.1957 19.4072 37.7095 19.4072 42.2351C19.4072 43.0815 19.7011 43.3871 20.5357 43.3871C25.0731 43.3871 29.6104 43.3871 34.1478 43.3871C34.9824 43.3871 35.2763 43.0815 35.2763 42.2351C35.2763 39.9665 35.2763 37.7095 35.2763 35.4526ZM8.80438 8.80438C8.80438 6.87658 8.80438 5.00756 8.80438 3.2796C6.98238 5.1016 5.1016 6.98238 3.2796 8.80438C5.03107 8.80438 6.90009 8.80438 8.80438 8.80438Z" fill="#73828D"/>
<path d="M16.7623 12.7893C20.1712 12.7893 23.5801 12.7893 26.9773 12.7893C27.1183 12.7893 27.2711 12.7775 27.4122 12.801C27.8589 12.8598 28.1998 13.2242 28.1998 13.6591C28.2115 14.1176 27.8589 14.4937 27.3887 14.5525C27.2476 14.5643 27.0948 14.5643 26.9538 14.5643C20.1359 14.5643 13.3299 14.5643 6.51208 14.5643C5.701 14.5643 5.28958 14.2704 5.27783 13.6944C5.26607 13.1067 5.68925 12.801 6.52384 12.801C9.95625 12.7893 13.3652 12.7893 16.7623 12.7893Z" fill="#73828D"/>
<path d="M16.7505 22.487C13.3416 22.487 9.93273 22.487 6.53558 22.487C6.39452 22.487 6.24171 22.4988 6.10065 22.4753C5.65397 22.4282 5.31308 22.0638 5.30132 21.6172C5.28957 21.1587 5.63046 20.7826 6.10065 20.7238C6.24171 20.712 6.39452 20.712 6.53558 20.712C13.3534 20.712 20.1594 20.712 26.9772 20.712C27.7883 20.712 28.1998 21.0059 28.2115 21.5819C28.2233 22.1696 27.8001 22.4753 26.9655 22.4753C23.5683 22.487 20.1594 22.487 16.7505 22.487Z" fill="#73828D"/>
<path d="M18.7018 18.5256C15.9512 18.5256 13.2123 18.5256 10.4617 18.5256C10.3206 18.5256 10.1678 18.5374 10.0268 18.5139C9.58008 18.4551 9.2627 18.0672 9.2627 17.6323C9.27445 17.2091 9.58008 16.8447 10.015 16.7859C10.1561 16.7624 10.3089 16.7742 10.4499 16.7742C15.9747 16.7742 21.4877 16.7742 27.0125 16.7742C27.1418 16.7742 27.2829 16.7624 27.4122 16.7859C27.8824 16.8329 28.2233 17.2208 28.2115 17.6793C28.1997 18.1142 27.8706 18.4786 27.4122 18.5374C27.2711 18.5491 27.1183 18.5491 26.9772 18.5491C24.2266 18.5256 21.4642 18.5256 18.7018 18.5256Z" fill="#73828D"/>
<path d="M10.5559 26.4602C9.14535 26.4602 7.73477 26.4602 6.33594 26.4602C5.70118 26.4602 5.30151 26.1075 5.30151 25.5785C5.30151 25.0613 5.70118 24.7087 6.30068 24.7087C9.1571 24.7087 12.0253 24.7087 14.8817 24.7087C15.4812 24.7087 15.8809 25.0731 15.8691 25.5903C15.8691 26.1075 15.4695 26.4484 14.87 26.4602C14.7877 26.4602 14.6936 26.4602 14.6113 26.4602C13.2595 26.4602 11.9077 26.4602 10.5559 26.4602Z" fill="#73828D"/>
<path d="M8.81597 28.6583C9.65056 28.6583 10.4852 28.6583 11.3197 28.6583C11.9428 28.6583 12.3542 29.0227 12.3424 29.5634C12.3307 30.0806 11.931 30.4215 11.3315 30.4215C9.66232 30.4215 7.99313 30.4215 6.32394 30.4215C5.70094 30.4215 5.28952 30.0571 5.30127 29.5164C5.31303 28.9992 5.70094 28.6583 6.31219 28.6583C7.14678 28.6583 7.98137 28.6583 8.81597 28.6583Z" fill="#73828D"/>
<path d="M7.05278 17.6323C7.06453 18.1142 6.65311 18.5256 6.15941 18.5256C5.68922 18.5256 5.30131 18.126 5.28955 17.6558C5.2778 17.1738 5.68922 16.7624 6.17117 16.7624C6.65311 16.7624 7.05278 17.1621 7.05278 17.6323Z" fill="#73828D"/>
<path d="M26.1075 34.1125C27.0831 33.1369 28 32.22 28.9051 31.3031C29.5634 30.6449 30.3392 30.3392 31.2561 30.4921C32.2552 30.6566 32.9488 31.2209 33.3132 32.1495C33.6776 33.1016 33.56 34.0538 32.8547 34.7826C31.2208 36.487 29.5516 38.168 27.8354 39.8019C26.8715 40.7188 25.3434 40.66 24.3442 39.7196C23.4861 38.9203 22.6515 38.0857 21.8522 37.2276C20.8648 36.1696 20.9118 34.571 21.9227 33.5718C22.9337 32.5609 24.5206 32.5374 25.5785 33.5013C25.7901 33.6776 25.9311 33.8892 26.1075 34.1125ZM31.7733 33.1957C31.7263 33.0076 31.7145 32.9136 31.691 32.8078C31.4677 32.1612 30.7154 32.0084 30.1981 32.5256C29.0932 33.6188 28 34.7238 26.895 35.817C26.4013 36.3107 25.9429 36.2989 25.4374 35.817C25.1201 35.5114 24.8144 35.194 24.497 34.8884C24.0739 34.4887 23.5684 34.4652 23.204 34.8178C22.8161 35.1822 22.8279 35.7112 23.251 36.1461C23.9798 36.8867 24.7204 37.6272 25.4609 38.356C25.9194 38.8027 26.4013 38.8027 26.848 38.356C28.3761 36.8397 29.9043 35.3115 31.4206 33.7834C31.597 33.6071 31.6793 33.3602 31.7733 33.1957Z" fill="#73828D"/>
</svg>
