<svg width="53" height="52" viewBox="0 0 53 52" fill="none" xmlns="http://www.w3.org/2000/svg">
<path d="M0.963379 4.07275C1.04456 3.7886 1.11222 3.49093 1.20693 3.20678C1.82935 1.33954 3.56128 0.0135307 5.53677 0.0135307C13.8852 0 22.2472 -0.0135307 30.5957 0.0270615C34.0595 0.0405922 36.2245 3.77507 34.6278 6.84655C34.5602 6.98186 34.4925 7.10363 34.3707 7.32012C34.6143 7.32012 34.7902 7.32012 34.9661 7.32012C37.4828 7.32012 39.9995 7.30659 42.5298 7.32012C44.5053 7.33365 46.2101 8.57848 46.8731 10.4187C47.5361 12.2724 46.9949 14.2884 45.4795 15.5603C44.6541 16.2639 43.6799 16.6293 42.5974 16.6428C41.7179 16.6563 40.8384 16.6428 39.9183 16.6428C40.0942 17.1434 40.2972 17.4682 40.852 17.6576C47.5361 19.9849 51.636 24.6124 52.7319 31.6213C54.1391 40.7004 48.0909 49.2383 39.093 50.9838C33.0989 52.1474 27.8625 50.4832 23.465 46.2345C23.1808 45.9639 22.9237 45.8556 22.5314 45.8556C18.7292 45.8692 14.9271 45.8827 11.1114 45.8556C8.40528 45.8421 6.30802 43.6095 6.45685 40.9034C6.53804 39.5503 7.14692 38.4543 8.20232 37.5342C7.0928 36.56 6.45685 35.3693 6.45685 33.8945C6.45685 32.4196 7.06574 31.2154 8.20232 30.2276C7.10633 29.2534 6.45685 28.0627 6.45685 26.6014C6.45685 25.1266 7.06574 23.9223 8.2835 22.8534C8.12113 22.7587 7.95877 22.691 7.83699 22.5693C6.47039 21.1215 6.07799 19.4437 6.76806 17.5629C7.41754 15.8174 9.12241 14.6402 10.9896 14.5997C11.8691 14.5861 12.7486 14.5997 13.7093 14.5997C12.681 12.8407 12.6539 11.1223 13.7093 9.34973C13.4793 9.3362 13.3169 9.32267 13.141 9.32267C10.719 9.32267 8.31056 9.32267 5.88856 9.32267C3.37185 9.3362 1.63992 7.9696 1.04456 5.52054C1.03103 5.43935 0.99044 5.3717 0.963379 5.29051C0.963379 4.88459 0.963379 4.47867 0.963379 4.07275ZM50.8918 34.0974C50.8782 25.7084 44.0317 18.8754 35.6426 18.8889C27.2671 18.9024 20.4476 25.7219 20.4476 34.0974C20.4341 42.4865 27.2806 49.333 35.6697 49.333C44.0588 49.333 50.8918 42.4865 50.8918 34.0974ZM18.0798 7.32012C22.1931 7.32012 26.2929 7.32012 30.4062 7.32012C32.0299 7.32012 33.2206 6.06177 33.1259 4.50573C33.0312 3.08501 31.8676 2.05667 30.3521 2.04314C24.3309 2.04314 18.3098 2.04314 12.2886 2.04314C10.0696 2.04314 7.86405 2.02961 5.64501 2.04314C4.44078 2.04314 3.42597 2.81439 3.10123 3.93744C2.6006 5.65584 3.85895 7.30659 5.69913 7.30659C9.82601 7.32012 13.9529 7.32012 18.0798 7.32012ZM30.0544 14.6267C34.1678 14.6267 38.2676 14.6267 42.3809 14.6267C43.9776 14.6267 45.1683 13.409 45.1141 11.8664C45.06 10.4322 43.8828 9.34973 42.3403 9.34973C34.1543 9.34973 25.9682 9.34973 17.7821 9.34973C17.6874 9.34973 17.5791 9.34973 17.4844 9.34973C16.3613 9.40386 15.3736 10.2022 15.0759 11.2846C14.6159 12.9895 15.8607 14.6132 17.6738 14.6267C21.8007 14.6267 25.9276 14.6267 30.0544 14.6267ZM36.7251 16.8728C36.7386 16.8322 36.7386 16.7781 36.7522 16.7375C36.4274 16.7104 36.1027 16.6563 35.7644 16.6563C27.6189 16.6563 19.4599 16.6563 11.3144 16.6563C11.0979 16.6563 10.8679 16.6563 10.6649 16.6969C9.29831 16.954 8.37822 18.1582 8.48646 19.5113C8.59471 20.8509 9.71776 21.9198 11.0979 21.9198C15.103 21.9333 19.1081 21.9333 23.1267 21.9062C23.3432 21.9062 23.6003 21.7709 23.7762 21.6086C25.9411 19.579 28.4443 18.1582 31.3128 17.4005C33.0718 16.954 34.8849 16.7781 36.7251 16.8728ZM21.5301 23.9629C18.0662 23.9629 14.5076 23.9629 10.9626 23.9764C10.6378 23.9764 10.286 24.0847 9.98837 24.22C8.89239 24.7071 8.26997 25.9519 8.51353 27.102C8.78414 28.3469 9.79894 29.2264 11.0573 29.2264C13.6417 29.2399 16.226 29.2264 18.8104 29.2264C18.9051 29.2264 18.9998 29.2128 19.0946 29.1993C19.054 29.1723 19.0134 29.1452 18.9728 29.1046C19.8387 27.3997 20.6777 25.6813 21.5301 23.9629ZM21.2459 43.8396C20.4476 42.0941 19.6493 40.3622 18.8239 38.5761C16.2802 38.5761 13.6281 38.549 10.9761 38.5896C9.58245 38.6032 8.47293 39.8209 8.47293 41.2146C8.47293 42.6083 9.56892 43.826 10.9626 43.8396C14.4129 43.8666 17.8633 43.8396 21.2459 43.8396ZM18.5263 36.5465C18.5263 34.7604 18.5263 33.0285 18.5263 31.2695C16.0907 31.2695 13.6146 31.256 11.125 31.2695C9.63658 31.283 8.47293 32.4467 8.47293 33.908C8.47293 35.3558 9.63658 36.533 11.125 36.5465C12.7351 36.56 14.3317 36.5465 15.9419 36.5465C16.7943 36.5465 17.6603 36.5465 18.5263 36.5465Z" fill="#73828D"/>
<path d="M48.862 33.7456C48.835 36.2488 48.3479 38.292 47.3466 40.2133C47.0895 40.7004 46.6701 40.9169 46.1694 40.7816C45.7094 40.6598 45.4252 40.3486 45.4117 39.8751C45.4117 39.6044 45.5199 39.3203 45.6417 39.0632C47.103 35.9917 47.2248 32.8797 45.9123 29.7541C44.884 27.3185 43.1927 25.4784 40.8518 24.22C40.7301 24.1523 40.6083 24.0982 40.5 24.0306C39.9588 23.7058 39.7694 23.1646 40.0265 22.6504C40.2836 22.1363 40.8654 21.9198 41.4066 22.231C42.3538 22.7857 43.328 23.327 44.1533 24.0306C47.2654 26.6555 48.7673 30.0517 48.862 33.7456Z" fill="#73828D"/>
<path d="M22.4771 34.4898C22.5041 31.9731 22.9777 29.93 23.979 27.9951C24.2225 27.535 24.5878 27.3185 25.102 27.4133C25.5756 27.4944 25.8733 27.8057 25.9003 28.2657C25.9139 28.5498 25.8056 28.8611 25.6838 29.1317C24.209 32.2167 24.1007 35.3423 25.4267 38.4949C26.4416 40.8899 28.1329 42.7165 30.4196 43.9613C30.582 44.0561 30.7579 44.1237 30.9067 44.232C31.4073 44.5567 31.5426 45.1115 31.272 45.5986C31.0149 46.0586 30.4467 46.2751 29.9595 45.991C29.0259 45.4497 28.0652 44.9356 27.2399 44.2455C24.1143 41.6205 22.5718 38.2108 22.4771 34.4898Z" fill="#73828D"/>
<path d="M38.2676 21.9468C38.2541 22.5151 37.7805 22.9481 37.1987 22.9346C36.6169 22.9211 36.1704 22.461 36.1839 21.8927C36.1974 21.3244 36.671 20.8914 37.2528 20.905C37.8211 20.932 38.2812 21.3921 38.2676 21.9468Z" fill="#73828D"/>
<path d="M35.1558 46.2751C35.1558 46.8298 34.6957 47.2899 34.1274 47.3034C33.5456 47.3034 33.0856 46.8569 33.072 46.3021C33.072 45.7339 33.5321 45.2873 34.1004 45.2738C34.6822 45.2603 35.1558 45.7068 35.1558 46.2751Z" fill="#73828D"/>
</svg>
