<svg width="70" height="70" viewBox="0 0 70 70" fill="none" xmlns="http://www.w3.org/2000/svg">
<path d="M41.11 69.4699C54.8226 67.2519 66.3591 56.1897 69.177 42.5887C69.4002 41.5145 69.5397 40.3846 69.6792 39.3105C69.7489 38.7804 69.8187 38.2224 69.9024 37.6784C69.9303 37.5249 69.9582 37.3715 69.9861 37.2459C69.9861 37.218 70 37.1901 70 37.1622V32.8238C69.9442 32.4193 69.8884 32.0287 69.8466 31.6242C69.735 30.7453 69.6234 29.8525 69.4699 28.9737C67.1961 15.289 56.5943 4.03149 43.1048 0.948585C41.9191 0.66959 40.6636 0.502192 39.45 0.348745C38.8641 0.265046 38.2643 0.195297 37.6644 0.0976485C37.511 0.0697489 37.3715 0.0418493 37.2459 0.0139498C37.218 0.0139498 37.1901 0 37.1622 0H32.8238C32.4193 0.0557991 32.0008 0.111598 31.5963 0.167397C30.7035 0.278996 29.7828 0.404544 28.89 0.544042C14.8844 2.84576 3.2782 14.2148 0.66959 28.1646C0.474293 29.2248 0.334795 30.3129 0.195297 31.3591C0.125548 31.8473 0.0697489 32.3356 0 32.8238V37.1901C0.0557991 37.6086 0.111598 38.0271 0.167397 38.4316C0.278996 39.3384 0.404544 40.273 0.557991 41.1798C2.74811 54.711 14.1032 66.4986 27.5787 69.1909C28.6389 69.4002 29.7409 69.5397 30.8151 69.6792C31.3452 69.7489 31.8892 69.8187 32.4332 69.9024C32.5867 69.9303 32.7122 69.9582 32.8378 69.9861C32.8517 69.9861 32.8796 70 32.8936 70H37.218C37.6226 69.9442 38.0271 69.8884 38.4456 69.8326C39.2965 69.735 40.2172 69.6234 41.11 69.4699ZM13.88 59.3284L13.0709 58.5751C9.8904 55.6178 7.37944 52.1303 5.62176 48.2244C2.78996 41.9191 2.05062 35.2929 3.43165 28.5273C4.82662 21.7338 8.28617 15.6796 13.4615 11.0343C18.623 6.40295 24.9562 3.61299 31.7916 2.9434C39.1152 2.23197 46.2156 3.91989 52.3396 7.83978C58.2124 11.6062 62.774 17.2698 65.2013 23.8123C67.503 30.0339 67.8517 36.6879 66.1917 43.0769C64.6433 49.0474 61.3372 54.5436 56.9012 58.5472L56.0921 59.2726L55.7712 58.2403C53.7067 51.6281 49.6054 47.0387 43.2583 44.1929L42.1562 43.7047L43.1327 42.9932C47.6664 39.729 49.8426 35.5859 49.8147 30.3547C49.7868 26.3511 48.3081 22.8637 45.4065 19.9761C39.6871 14.2985 30.3687 14.2706 24.6493 19.9342C21.2874 23.2543 19.8087 27.2997 20.2551 31.9589C20.6736 36.4787 22.9055 40.1893 26.8952 42.9932L27.8996 43.7047L26.7836 44.2069C20.4225 47.0526 16.3212 51.67 14.2288 58.3101L13.88 59.3284ZM35 42.5608C34.986 42.5608 34.9721 42.5608 34.9442 42.5608C31.7218 42.5468 28.7087 41.2774 26.4348 39.0036C24.161 36.7298 22.9334 33.6887 22.9474 30.4663C22.9613 27.23 24.2447 24.2029 26.5464 21.9291C28.8342 19.6692 31.8613 18.4416 35.0419 18.4695C38.2643 18.4974 41.2914 19.7668 43.5512 22.0546C45.8111 24.3424 47.0526 27.3695 47.0247 30.5779C47.0108 33.8003 45.7413 36.8274 43.4675 39.0873C41.2077 41.3193 38.2085 42.5608 35 42.5608ZM34.0514 67.224C33.9956 67.224 33.9398 67.224 33.898 67.224C28.4018 67.1682 22.5568 65.3129 17.4233 62.0068C16.7118 61.5464 16.4607 60.9605 16.6421 60.1515C17.5907 55.7294 20.1295 51.7955 23.7844 49.0753C27.4532 46.3551 31.945 45.0578 36.4368 45.4344C44.7648 46.1319 51.4049 51.8374 53.3161 59.9701C53.4695 60.6536 53.4974 61.4348 52.493 62.0765C47.0945 65.5361 41.0682 67.224 34.0514 67.224Z" fill="#5DB044"/>
</svg>
