<svg width="56" height="57" viewBox="0 0 56 57" fill="none" xmlns="http://www.w3.org/2000/svg">
<path d="M31.5379 56.0012C31.2867 55.6627 30.9154 55.3678 30.8172 54.9856C30.6533 54.3631 31.254 53.8171 31.9966 53.8171C34.2025 53.8062 36.3976 53.8171 38.6035 53.8171C39.0731 53.8171 39.5536 53.828 40.0232 53.8171C40.6894 53.7953 41.1371 53.3694 41.1371 52.7141C41.148 49.6891 41.1371 46.675 41.1371 43.6501C41.1371 43.6282 41.1043 43.5954 41.0497 43.5081C40.6348 44.2398 40.2525 44.9496 39.8157 45.6267C39.6082 45.9543 39.3352 46.271 39.0185 46.4894C36.7033 48.0947 34.3663 49.6782 32.0512 51.2726C31.6253 51.5675 31.1885 51.7531 30.6861 51.4692C30.1728 51.1743 30.0855 50.6938 30.1292 50.1478C30.3585 47.2866 30.566 44.4145 30.7953 41.5533C30.8172 41.2366 30.9591 40.9199 31.112 40.636C31.527 39.8715 31.9747 39.1289 32.4552 38.288C32.1604 38.288 31.9529 38.288 31.7454 38.288C24.6143 38.288 17.4722 38.288 10.3411 38.288C9.34731 38.288 8.82313 37.9167 8.82313 37.2069C8.82313 36.4971 9.33639 36.1258 10.3302 36.1258C17.9418 36.1258 25.5425 36.1258 33.1542 36.1367C33.5582 36.1367 33.7985 36.0384 34.006 35.6671C36.2884 31.6702 38.6035 27.6951 40.8859 23.7091C41.0388 23.447 41.1371 23.0975 41.1371 22.7918C41.148 16.4251 41.148 10.0475 41.148 3.68076C41.148 2.6433 40.7767 2.28293 39.7283 2.28293C27.7157 2.28293 15.7031 2.28293 3.69046 2.28293C2.64208 2.28293 2.27078 2.6433 2.27078 3.68076C2.27078 16.7636 2.27078 29.8464 2.27078 42.9402C2.27078 43.104 2.27078 43.2569 2.27078 43.4644C2.51104 43.4753 2.70761 43.4862 2.89326 43.4862C4.91356 43.4862 6.93387 43.4862 8.95417 43.4862C11.2475 43.4862 12.5798 44.8186 12.5907 47.1119C12.6016 49.1103 12.5907 51.1197 12.5907 53.1182C12.5907 53.3366 12.5907 53.5441 12.5907 53.828C12.8419 53.828 13.0275 53.828 13.2241 53.828C16.1181 53.828 19.012 53.828 21.906 53.828C22.7578 53.828 23.3475 54.4723 23.0854 55.1822C22.9653 55.4989 22.6158 55.7391 22.3646 56.0121C18.6516 56.0121 14.9386 56.0121 11.2257 56.0121C10.9854 55.8265 10.7124 55.6736 10.494 55.4552C7.20688 52.179 3.91979 48.8919 0.643619 45.6048C0.425208 45.3864 0.27232 45.1243 0.0866699 44.8841C0.0866699 30.8511 0.0866699 16.8291 0.0866699 2.81803C0.46889 1.37652 1.3753 0.470111 2.81681 0.0878906C15.4082 0.0878906 28.0106 0.0878906 40.602 0.0878906C42.7643 0.896013 43.3321 1.7369 43.3321 4.09574C43.3321 8.96632 43.3321 13.8478 43.3321 18.7184C43.3321 18.904 43.3321 19.0897 43.3321 19.2753C43.5178 19.1334 43.6161 18.9805 43.7034 18.8276C44.7081 17.1021 45.6582 15.3439 46.7175 13.6512C47.886 11.7947 49.6333 10.9866 51.8065 11.347C53.9032 11.6965 55.2356 12.9851 55.8362 15.0272C55.8908 15.2129 55.9454 15.4095 56 15.5951C56 16.0647 56 16.5452 56 17.0148C55.6505 17.8229 55.3775 18.6747 54.9407 19.4391C51.1731 26.0133 47.3727 32.5657 43.5942 39.1399C43.4304 39.4238 43.3431 39.7842 43.3431 40.1118C43.3212 44.2944 43.3321 48.4769 43.3321 52.6595C43.3321 54.2648 42.393 55.4661 40.8532 55.9139C40.7658 55.9357 40.6894 55.9794 40.602 56.0121C37.577 56.0012 34.5629 56.0012 31.5379 56.0012ZM38.3087 43.9121C42.5677 36.5408 46.794 29.2131 51.0421 21.8526C49.3712 20.8916 47.755 19.9633 46.1169 19.0242C41.8579 26.4065 37.6316 33.7232 33.3835 41.0728C35.0325 42.0229 36.6269 42.9402 38.3087 43.9121ZM47.2089 17.124C48.8689 18.085 50.4851 19.0132 52.1341 19.9633C52.6037 19.1443 53.0842 18.3689 53.4992 17.5608C54.1981 16.1957 53.6958 14.5795 52.3853 13.826C51.053 13.0615 49.393 13.4656 48.574 14.7979C48.1044 15.5296 47.6894 16.3049 47.2089 17.124ZM10.3738 52.0371C10.3848 51.9497 10.4066 51.8186 10.4066 51.6767C10.4066 50.1369 10.4175 48.5861 10.4066 47.0463C10.4066 46.0417 10.0244 45.6704 9.0197 45.6594C7.4799 45.6485 5.92918 45.6594 4.38938 45.6594C4.24741 45.6594 4.11636 45.6813 4.029 45.6813C6.12575 47.7999 8.24434 49.9075 10.3738 52.0371ZM32.4662 48.3459C33.9295 47.3412 35.2618 46.4348 36.6487 45.4847C35.3383 44.7312 34.1261 44.0323 32.8484 43.2897C32.7283 44.9824 32.5972 46.5877 32.4662 48.3459Z" fill="#73828D"/>
<path d="M26.6236 56.0012C26.5144 55.9138 26.3943 55.8374 26.2851 55.75C25.7828 55.3241 25.7391 54.6361 26.1868 54.1665C26.6236 53.697 27.3444 53.7079 27.7812 54.1775C28.218 54.658 28.1307 55.4006 27.5956 55.7937C27.4973 55.8701 27.3881 55.9357 27.2789 56.0012C27.0605 56.0012 26.842 56.0012 26.6236 56.0012Z" fill="#73828D"/>
<path d="M21.6876 13.8369C17.909 13.8369 14.1196 13.8369 10.3411 13.8369C10.1445 13.8369 9.93703 13.8478 9.74046 13.815C9.19443 13.7168 8.80129 13.2253 8.82313 12.6902C8.84497 12.1442 9.27088 11.7183 9.83875 11.6637C10.0026 11.6528 10.1664 11.6528 10.3302 11.6528C17.909 11.6528 25.4988 11.6528 33.0777 11.6528C34.0824 11.6528 34.5848 12.0241 34.5848 12.7339C34.5848 13.4547 34.0606 13.8369 33.0777 13.8369C29.2883 13.8369 25.4879 13.8369 21.6876 13.8369Z" fill="#73828D"/>
<path d="M21.7092 23.8947C25.4878 23.8947 29.2772 23.8947 33.0557 23.8947C33.2195 23.8947 33.3833 23.8838 33.5471 23.9056C34.1478 23.9493 34.5737 24.3861 34.5955 24.9649C34.6064 25.5328 34.1915 26.0024 33.6017 26.0788C33.4379 26.1007 33.2741 26.0897 33.1103 26.0897C25.5096 26.0897 17.9089 26.0897 10.3082 26.0897C10.1444 26.0897 9.98054 26.1007 9.81674 26.0788C9.22703 26.0024 8.81204 25.5328 8.82296 24.9649C8.83389 24.397 9.27071 23.9493 9.87134 23.9056C10.0351 23.8947 10.199 23.8947 10.3628 23.8947C14.1413 23.8947 17.9307 23.8947 21.7092 23.8947Z" fill="#73828D"/>
<path d="M25.1386 30.0103C27.8688 30.0103 30.588 30.0103 33.3181 30.0103C33.8642 30.0103 34.2791 30.1741 34.4976 30.6982C34.7706 31.3426 34.3665 32.0524 33.6567 32.1725C33.4819 32.2053 33.2963 32.1944 33.1106 32.1944C27.8032 32.1944 22.4958 32.1944 17.1775 32.1944C17.0465 32.1944 16.9264 32.1944 16.7953 32.1944C16.1401 32.1507 15.6814 31.692 15.6923 31.0805C15.7033 30.4689 16.1619 30.0212 16.839 30.0212C19.307 30.0103 21.786 30.0212 24.2541 30.0212C24.5598 30.0103 24.8547 30.0103 25.1386 30.0103Z" fill="#73828D"/>
<path d="M14.7748 17.7792C16.3146 17.7792 17.8653 17.7792 19.4051 17.7792C20.1914 17.7792 20.7047 18.2161 20.7047 18.8604C20.7047 19.5047 20.1914 19.9524 19.4051 19.9524C16.2928 19.9524 13.1913 19.9524 10.079 19.9524C9.30361 19.9524 8.80127 19.4828 8.81219 18.8276C8.82311 18.1833 9.31453 17.7683 10.079 17.7683C11.6515 17.7683 13.2132 17.7792 14.7748 17.7792Z" fill="#73828D"/>
<path d="M20.4971 44.4254C19.0665 44.4254 17.625 44.4254 16.1944 44.4254C16.0524 44.4254 15.8995 44.4363 15.7576 44.4254C15.1242 44.3708 14.6983 43.934 14.7092 43.3333C14.7092 42.7218 15.1351 42.2631 15.7685 42.2631C18.9245 42.2522 22.0915 42.2522 25.2475 42.2631C25.9028 42.2631 26.3505 42.7546 26.3287 43.377C26.3178 43.9886 25.8591 44.4254 25.182 44.4363C23.6204 44.4254 22.0587 44.4254 20.4971 44.4254Z" fill="#73828D"/>
<path d="M29.4084 17.7792C30.7189 17.7792 32.0185 17.7792 33.3289 17.7792C34.0934 17.7792 34.5739 18.1942 34.5957 18.8385C34.6176 19.4937 34.1043 19.9633 33.3399 19.9633C30.708 19.9743 28.0761 19.9743 25.4443 19.9633C24.658 19.9633 24.1775 19.5156 24.1884 18.8494C24.1993 18.2051 24.6798 17.7901 25.4334 17.7901C26.7548 17.7683 28.0761 17.7792 29.4084 17.7792Z" fill="#73828D"/>
<path d="M10.8324 30.0102C11.1382 30.0102 11.4549 29.9993 11.7607 30.0102C12.3613 30.0539 12.7763 30.4907 12.7872 31.0695C12.7982 31.6592 12.405 32.1288 11.8044 32.1725C11.1491 32.2162 10.4939 32.2053 9.8496 32.1725C9.25989 32.1397 8.83398 31.6483 8.83398 31.0914C8.83398 30.5016 9.28173 30.043 9.9042 30.0102C10.21 29.9993 10.5158 30.0102 10.8324 30.0102Z" fill="#73828D"/>
</svg>
