<svg width="59" height="59" viewBox="0 0 59 59" fill="none" xmlns="http://www.w3.org/2000/svg">
<path d="M59 52.9252C59 54.1378 59 55.3391 59 56.5517C58.7167 57.2544 58.2294 57.7417 57.5267 58.025C39.1672 58.025 20.8078 58.025 2.45962 58.025C1.75697 57.7417 1.26965 57.2544 0.986328 56.5517C0.986328 55.3051 0.986328 54.0585 0.986328 52.8118C1.09966 52.6645 1.22432 52.5285 1.31499 52.3699C3.0376 49.5026 4.76022 46.6467 6.46017 43.7681C6.65283 43.4508 6.76616 43.0314 6.76616 42.6688C6.7775 32.0951 6.7775 21.5214 6.7775 10.9477C6.7775 8.93041 7.96746 7.72911 9.97341 7.72911C12.1493 7.72911 14.3139 7.71778 16.4899 7.74045C16.8865 7.74045 17.1585 7.61578 17.4305 7.34379C19.4251 5.32652 21.4424 3.34324 23.4257 1.32596C24.3097 0.430654 25.3523 0 26.6216 0C31.8574 0.011333 37.082 0 42.3178 0.011333C44.2671 0.011333 45.4571 1.18997 45.4797 3.13924C45.4911 4.46521 45.4797 5.77984 45.4797 7.1058C45.4797 7.30979 45.5024 7.50245 45.5137 7.74045C47.089 7.74045 48.5963 7.74045 50.1036 7.74045C50.8856 7.74045 51.5996 7.93311 52.2002 8.45443C52.9708 9.12307 53.2315 9.98438 53.2315 10.9817C53.2202 21.5554 53.2202 32.1291 53.2428 42.7028C53.2428 43.0541 53.3562 43.4508 53.5375 43.7568C55.3281 46.8167 57.1754 49.8653 59 52.9252ZM16.4899 11.605C16.4786 11.877 16.4559 12.081 16.4559 12.2737C16.4559 20.6374 16.4559 29.0012 16.4559 37.3649C16.4559 38.3962 16.7392 38.6796 17.7705 38.6796C25.9303 38.6796 34.0787 38.6796 42.2385 38.6796C43.2245 38.6796 43.5191 38.3849 43.5304 37.3989C43.5304 26.0206 43.5304 14.6309 43.5304 3.25257C43.5304 2.24394 43.2245 1.94928 42.2045 1.94928C37.0706 1.94928 31.9368 1.94928 26.8029 1.94928C26.5989 1.94928 26.3949 1.94928 26.1343 1.94928C26.1343 2.22127 26.1343 2.42526 26.1343 2.62926C26.1343 4.29521 26.1343 5.94983 26.1343 7.61578C26.1343 10.0524 24.5817 11.605 22.1337 11.6163C20.4678 11.6277 18.8132 11.6163 17.1472 11.6163C16.9432 11.605 16.7392 11.605 16.4899 11.605ZM56.2914 52.2339C56.2234 52.0752 56.2008 52.0072 56.1668 51.9392C54.7388 49.5593 53.3222 47.1793 51.8715 44.8107C51.7582 44.6294 51.4182 44.4934 51.1802 44.4934C37.0593 44.4821 22.9384 44.4821 8.81744 44.4707C8.45478 44.4707 8.23945 44.5614 8.04679 44.8901C6.68683 47.1907 5.3042 49.4913 3.92158 51.7919C3.85358 51.9165 3.79691 52.0525 3.74025 52.1885C3.81958 52.2112 3.85358 52.2225 3.89891 52.2225C8.71544 52.2225 13.532 52.2339 18.3372 52.2112C18.5072 52.2112 18.7678 52.0072 18.8472 51.8372C19.2891 50.8172 19.6971 49.7859 20.0938 48.7433C20.4564 47.8253 21.1138 47.372 22.0884 47.372C27.3582 47.372 32.6281 47.372 37.8866 47.372C38.8386 47.372 39.5072 47.8026 39.8586 48.6866C40.2665 49.7066 40.6972 50.7039 41.0712 51.7352C41.2185 52.1205 41.4225 52.2338 41.8192 52.2225C45.9104 52.2112 50.0129 52.2112 54.1155 52.2112C54.8181 52.2339 55.5094 52.2339 56.2914 52.2339ZM51.2482 42.5215C51.2596 42.3288 51.2822 42.1588 51.2822 42.0001C51.2822 31.6531 51.2822 21.3061 51.2822 10.9477C51.2822 10.0184 50.9422 9.67839 50.0243 9.67839C48.687 9.66706 47.3383 9.67839 46.001 9.67839C45.8424 9.67839 45.6837 9.70106 45.5251 9.72372C45.5251 10.381 45.5251 10.9704 45.5251 11.6163C46.0577 11.6163 46.545 11.6163 47.0323 11.6163C48.619 11.6163 49.3556 12.353 49.3556 13.9283C49.3556 22.054 49.3556 30.1685 49.3556 38.2942C49.3556 39.9035 48.6416 40.6288 47.055 40.6288C35.688 40.6288 24.321 40.6288 12.954 40.6288C11.39 40.6288 10.6647 39.9035 10.6647 38.3396C10.6647 30.2025 10.6647 22.0654 10.6647 13.9169C10.6647 12.3643 11.4014 11.6163 12.9427 11.6163C13.4866 11.6163 14.0193 11.6163 14.4613 11.6163C14.6879 10.9024 14.8919 10.3017 15.0846 9.67839C13.4073 9.67839 11.7754 9.67839 10.1321 9.67839C9.0101 9.67839 8.72677 9.97305 8.72677 11.0837C8.72677 21.3627 8.72677 31.6304 8.72677 41.9095C8.72677 42.1135 8.72677 42.3061 8.72677 42.5328C22.9384 42.5215 37.0706 42.5215 51.2482 42.5215ZM57.0507 54.2058C38.9859 54.2058 20.9664 54.2058 2.94694 54.2058C2.94694 54.8404 2.94694 55.4411 2.94694 56.0644C20.9891 56.0644 39.0086 56.0644 57.0507 56.0644C57.0507 55.4411 57.0507 54.8404 57.0507 54.2058ZM39.1899 52.2112C38.8499 51.3499 38.4986 50.5339 38.2039 49.7066C38.0793 49.3779 37.8979 49.2986 37.5693 49.3099C36.6853 49.3326 35.8013 49.3213 34.906 49.3213C30.7581 49.3213 26.6103 49.3213 22.451 49.3326C22.2584 49.3326 21.9411 49.4006 21.8844 49.5253C21.4991 50.3979 21.1591 51.2932 20.7851 52.2225C26.9503 52.2112 33.0361 52.2112 39.1899 52.2112ZM12.614 13.5656C12.614 21.952 12.614 30.2818 12.614 38.6456C13.3053 38.6456 13.9626 38.6456 14.5293 38.6456C14.5293 30.2818 14.5293 21.9294 14.5293 13.5656C13.838 13.5656 13.26 13.5656 12.614 13.5656ZM45.4457 13.5656C45.4457 21.952 45.4457 30.2931 45.4457 38.6229C46.0464 38.6229 46.7037 38.6229 47.361 38.6229C47.361 30.2478 47.361 21.918 47.361 13.5656C46.7264 13.5656 46.1484 13.5656 45.4457 13.5656ZM24.1737 3.58123C22.1677 5.58717 20.1165 7.63845 18.1105 9.64439C19.5498 9.64439 21.0911 9.67839 22.6324 9.63306C23.403 9.61039 24.117 8.94175 24.151 8.12577C24.219 6.58448 24.1737 5.02052 24.1737 3.58123Z" fill="#73828D"/>
<path d="M29.9419 18.3708C27.1993 18.3708 24.468 18.3708 21.7254 18.3708C21.5555 18.3708 21.3855 18.3822 21.2155 18.3595C20.7168 18.3029 20.3768 17.9629 20.3428 17.4755C20.3088 16.9656 20.6261 16.5462 21.1248 16.4556C21.2948 16.4216 21.4648 16.4329 21.6348 16.4329C27.2106 16.4329 32.7751 16.4329 38.351 16.4329C38.521 16.4329 38.691 16.4216 38.861 16.4556C39.3596 16.5462 39.6769 16.9656 39.6429 17.4755C39.6089 17.9515 39.2689 18.3029 38.7703 18.3595C38.6003 18.3822 38.4303 18.3708 38.2603 18.3708C35.4951 18.3708 32.7185 18.3708 29.9419 18.3708Z" fill="#73828D"/>
<path d="M29.9419 32.8771C27.1993 32.8771 24.468 32.8771 21.7254 32.8771C21.5555 32.8771 21.3855 32.8885 21.2155 32.8658C20.7168 32.8205 20.3768 32.4691 20.3428 31.9818C20.3088 31.4718 20.6261 31.0525 21.1248 30.9619C21.2948 30.9279 21.4648 30.9392 21.6348 30.9392C27.2106 30.9392 32.7751 30.9392 38.351 30.9392C38.521 30.9392 38.691 30.9279 38.861 30.9619C39.3709 31.0525 39.6769 31.4718 39.6543 31.9818C39.6203 32.4578 39.2803 32.8091 38.7816 32.8658C38.6116 32.8885 38.4416 32.8771 38.2716 32.8771C35.4951 32.8771 32.7185 32.8771 29.9419 32.8771Z" fill="#73828D"/>
<path d="M30.0217 21.2947C32.7643 21.2947 35.4956 21.2947 38.2382 21.2947C38.4308 21.2947 38.6122 21.2834 38.8048 21.306C39.3035 21.3627 39.5981 21.6574 39.6435 22.1447C39.6888 22.6433 39.4735 22.9947 38.9975 23.142C38.7708 23.21 38.5102 23.2213 38.2722 23.2213C32.7643 23.2213 27.2451 23.2213 21.7373 23.2213C21.5333 23.2213 21.318 23.2326 21.114 23.1873C20.604 23.0853 20.3093 22.6547 20.3547 22.156C20.4 21.68 20.74 21.34 21.25 21.306C21.6126 21.2834 21.964 21.2947 22.3266 21.2947C24.8879 21.2947 27.4491 21.2947 30.0217 21.2947Z" fill="#73828D"/>
<path d="M29.9649 28.0492C27.2223 28.0492 24.4911 28.0492 21.7485 28.0492C21.5218 28.0492 21.2952 28.0605 21.0685 28.0039C20.6152 27.9019 20.3545 27.5959 20.3319 27.1199C20.3092 26.6439 20.5359 26.3153 20.9892 26.1793C21.2385 26.1113 21.5105 26.1113 21.7712 26.1113C27.245 26.1113 32.7189 26.1113 38.1927 26.1113C38.442 26.1113 38.6913 26.1113 38.918 26.1679C39.4053 26.2926 39.6433 26.6326 39.6207 27.1199C39.598 27.6186 39.326 27.9245 38.8387 28.0152C38.6347 28.0492 38.4307 28.0492 38.2154 28.0492C35.4728 28.0492 32.7189 28.0492 29.9649 28.0492Z" fill="#73828D"/>
<path d="M33.365 13.543C31.7443 13.543 30.1124 13.543 28.4918 13.543C28.2878 13.543 28.0724 13.543 27.8684 13.509C27.3698 13.4184 27.1091 13.0784 27.0978 12.5911C27.0865 12.1264 27.3245 11.7977 27.7778 11.6617C27.9591 11.6164 28.1518 11.6051 28.3331 11.5938C31.699 11.5938 35.0536 11.5938 38.4081 11.5938C38.5781 11.5938 38.7481 11.6051 38.9068 11.6504C39.3828 11.7864 39.6321 12.1151 39.6094 12.6137C39.5868 13.1124 39.3148 13.4184 38.8275 13.509C38.6235 13.543 38.4195 13.543 38.2041 13.543C36.6175 13.543 34.9856 13.543 33.365 13.543Z" fill="#73828D"/>
</svg>
