<svg width="48" height="48" viewBox="0 0 48 48" fill="none" xmlns="http://www.w3.org/2000/svg">
<path d="M28.1895 47.6365C37.5924 46.1156 45.5031 38.5301 47.4354 29.2037C47.5884 28.4671 47.6841 27.6923 47.7798 26.9558C47.8276 26.5923 47.8754 26.2096 47.9328 25.8366C47.9519 25.7314 47.9711 25.6261 47.9902 25.5401C47.9902 25.5209 47.9998 25.5018 47.9998 25.4827V22.5078C47.9615 22.2304 47.9232 21.9625 47.8945 21.6851C47.818 21.0825 47.7415 20.4703 47.6363 19.8677C46.0771 10.4839 38.8073 2.76445 29.5574 0.650458C28.7443 0.459147 27.8834 0.34436 27.0512 0.239139C26.6494 0.181746 26.2381 0.133918 25.8268 0.0669589C25.7216 0.0478278 25.6259 0.0286967 25.5398 0.00956556C25.5207 0.00956556 25.5015 0 25.4824 0H22.5075C22.2301 0.0382623 21.9432 0.0765245 21.6658 0.114787C21.0536 0.191311 20.4222 0.277401 19.81 0.373057C10.2062 1.95138 2.24766 9.74731 0.458903 19.3129C0.324985 20.0399 0.229329 20.786 0.133674 21.5034C0.0858459 21.8382 0.0475837 22.173 -0.000244141 22.5078V25.5018C0.0380181 25.7888 0.0762804 26.0757 0.114543 26.3531C0.191067 26.9749 0.277157 27.6158 0.382378 28.2375C1.88417 37.5161 9.67054 45.599 18.9109 47.4452C19.6379 47.5887 20.3935 47.6843 21.1301 47.78C21.4936 47.8278 21.8666 47.8756 22.2397 47.933C22.3449 47.9522 22.431 47.9713 22.5171 47.9904C22.5267 47.9904 22.5458 48 22.5554 48H25.5207C25.7981 47.9617 26.0755 47.9235 26.3625 47.8852C26.946 47.8183 27.5773 47.7417 28.1895 47.6365ZM9.51749 40.6823L8.96269 40.1658C6.78174 38.1379 5.05994 35.7465 3.85468 33.0682C1.91287 28.7445 1.40589 24.2009 2.35288 19.5616C3.30944 14.9031 5.6817 10.7517 9.23053 7.56636C12.7698 4.39059 17.1125 2.47748 21.7997 2.01833C26.8216 1.53049 31.6905 2.68792 35.8898 5.37585C39.9169 7.95855 43.0448 11.8422 44.7092 16.3284C46.2875 20.5947 46.5267 25.1574 45.3884 29.5385C44.3266 33.6325 42.0595 37.4014 39.0177 40.1467L38.4629 40.6441L38.2429 39.9362C36.8272 35.4022 34.0149 32.2551 29.6626 30.3037L28.9069 29.9689L29.5765 29.4811C32.6853 27.2427 34.1775 24.4018 34.1584 20.8147C34.1393 18.0693 33.1253 15.678 31.1357 13.6979C27.2138 9.8047 20.824 9.78557 16.9021 13.6692C14.5968 15.9458 13.5829 18.7198 13.889 21.9147C14.1759 25.014 15.7064 27.5584 18.4422 29.4811L19.1309 29.9689L18.3656 30.3133C14.0037 32.2646 11.1915 35.4309 9.75663 39.9841L9.51749 40.6823ZM23.9998 29.1845C23.9902 29.1845 23.9806 29.1845 23.9615 29.1845C21.7518 29.175 19.6857 28.3045 18.1265 26.7453C16.5673 25.1861 15.7255 23.1008 15.7351 20.8912C15.7447 18.672 16.6247 16.5963 18.203 15.0371C19.7718 13.4874 21.8475 12.6457 24.0285 12.6648C26.2381 12.6839 28.3138 13.5544 29.8634 15.1232C31.4131 16.6919 32.2644 18.7676 32.2453 20.9677C32.2357 23.1774 31.3652 25.2531 29.8061 26.8027C28.2564 28.3332 26.1998 29.1845 23.9998 29.1845ZM23.3493 46.0965C23.311 46.0965 23.2728 46.0965 23.2441 46.0965C19.4752 46.0582 15.4673 44.786 11.9471 42.5189C11.4593 42.2033 11.2871 41.8015 11.4115 41.2467C12.0619 38.2144 13.8029 35.5169 16.309 33.6517C18.8248 31.7864 21.9049 30.8968 24.985 31.155C30.6957 31.6333 35.2489 35.5456 36.5593 41.1224C36.6646 41.5911 36.6837 42.1267 35.995 42.5668C32.2931 44.939 28.1608 46.0965 23.3493 46.0965Z" fill="#EF0915"/>
</svg>
