<svg width="41" height="392" viewBox="0 0 41 392" fill="none" xmlns="http://www.w3.org/2000/svg">
<path d="M40.5303 386.53C40.8232 386.237 40.8232 385.763 40.5303 385.47L35.7574 380.697C35.4645 380.404 34.9896 380.404 34.6967 380.697C34.4038 380.99 34.4038 381.464 34.6967 381.757L38.9393 386L34.6967 390.243C34.4038 390.536 34.4038 391.01 34.6967 391.303C34.9896 391.596 35.4645 391.596 35.7574 391.303L40.5303 386.53ZM40 385.25L1 385.25L1 386.75L40 386.75L40 385.25Z" fill="#73828D"/>
<path d="M1 1L40 1.00001" stroke="#73828D" stroke-width="1.5"/>
<path d="M1 386L1.00005 1.00001" stroke="#73828D" stroke-width="1.5" stroke-linecap="square"/>
</svg>
