<svg width="32" height="49" viewBox="0 0 32 49" fill="none" xmlns="http://www.w3.org/2000/svg">
<path d="M2.01724 42.4288C2.01724 41.1227 1.94207 39.8354 2.03604 38.5669C2.18638 36.4433 2.92869 34.4795 4.00927 32.6566C4.32875 32.121 4.85495 31.9706 5.32477 32.2431C5.79458 32.5156 5.94493 33.0512 5.63485 33.5868C4.80796 35.0245 4.15022 36.5373 3.97169 38.191C3.82135 39.5911 3.82135 41.0005 3.74618 42.4758C4.59185 42.4758 5.35295 42.4946 6.10466 42.457C6.23621 42.4476 6.37716 42.2691 6.48992 42.1469C9.25245 39.3186 12.5694 37.7588 16.5722 37.9749C20.1053 38.1628 23.1403 39.5441 25.5739 42.1563C25.7807 42.3818 25.9874 42.4946 26.2975 42.4852C26.9176 42.4664 27.5472 42.4758 28.1861 42.4758C28.2049 42.4006 28.2331 42.3442 28.2331 42.2878C28.7499 36.4809 26.3538 32.0176 21.8342 28.5785C20.7536 27.7517 19.5979 27.0375 18.4421 26.3046C17.54 25.7408 17.3709 25.5717 16.9481 24.3784C16.3373 24.3784 15.7359 24.3784 15.0594 24.3784C14.9279 25.5435 14.0258 26.0603 13.105 26.6053C12.2311 27.1127 11.4042 27.7235 10.5585 28.2873C10.2015 28.5316 9.82563 28.5597 9.45917 28.3154C9.1209 28.0993 8.97056 27.7517 9.07392 27.3852C9.14909 27.1409 9.32762 26.8684 9.53434 26.7181C10.5679 26.0133 11.6203 25.3274 12.6727 24.6603C13.3775 24.2186 13.3869 23.8616 12.6633 23.4481C9.81623 21.8132 7.24163 19.8493 5.20261 17.2371C3.02265 14.4464 1.84811 11.2986 1.91388 7.7186C1.92328 7.04206 1.91388 6.37492 1.91388 5.67958C1.73535 5.642 1.57561 5.60441 1.41588 5.55743C0.62658 5.33192 0.0815903 4.64598 0.0534012 3.80971C0.0346085 3.15196 0.0346085 2.49421 0.0534012 1.83647C0.0815903 0.821661 0.870885 0.0323653 1.88569 0.00417616C2.23336 -0.00522021 2.57163 0.00417616 2.91929 0.00417616C11.874 0.00417616 20.8288 0.00417616 29.7835 0.00417616C31.2869 0.00417616 31.9917 0.7183 31.9917 2.22172C31.9917 2.62576 31.9917 3.0392 31.9917 3.44325C31.9917 4.78693 31.4655 5.42588 30.1124 5.67958C30.1124 6.20578 30.0936 6.73198 30.1124 7.25817C30.2909 11.947 28.4492 15.8089 25.1981 19.0788C23.5443 20.742 21.6651 22.1138 19.6448 23.2978C19.5227 23.373 19.4005 23.4387 19.2784 23.5045C18.677 23.8616 18.6676 24.275 19.2784 24.6133C20.9885 25.5811 22.5953 26.6805 24.0705 27.9772C26.5418 30.1571 28.4868 32.7035 29.4828 35.8889C29.9808 37.4863 30.1406 39.1307 30.103 40.8032C30.0936 41.3388 30.103 41.865 30.103 42.4194C30.3379 42.4758 30.5634 42.5134 30.7795 42.5979C31.5312 42.908 31.9447 43.4812 31.9823 44.2987C32.0105 44.9564 32.0011 45.6142 31.9823 46.2719C31.9541 47.2867 31.1648 48.0666 30.15 48.1136C30.1218 48.1136 30.0842 48.1136 30.056 48.1136C20.6972 48.1136 11.329 48.1136 1.97026 48.1136C0.842696 48.1136 0.0534012 47.3055 0.0440048 46.1873C0.0346085 45.6705 0.0440048 45.1537 0.0440048 44.6369C0.0534012 43.3308 0.607787 42.6731 2.01724 42.4288ZM3.81195 5.6514C3.81195 6.57224 3.80255 7.4461 3.81195 8.31996C3.84014 10.0771 4.26298 11.7496 4.99589 13.347C5.14623 13.6665 5.34356 13.8168 5.68183 13.8826C8.92358 14.531 12.1559 14.5122 15.3507 13.6383C18.4609 12.7926 21.6087 12.445 24.8222 12.8678C25.5739 12.9712 26.3257 13.1027 27.068 13.2249C28.2895 10.81 28.3177 8.24479 28.2049 5.642C20.0771 5.65139 11.9774 5.6514 3.81195 5.6514ZM26.1283 15.076C26.0156 14.9914 25.9874 14.9632 25.9686 14.9632C22.849 14.3618 19.7388 14.437 16.6662 15.2639C13.9882 15.9874 11.2727 16.3633 8.50074 16.1659C7.90877 16.119 7.3074 16.0626 6.64965 15.9968C6.7906 16.1847 6.89396 16.3257 6.99732 16.4572C8.96116 18.8157 11.3572 20.6292 14.054 22.0481C15.3977 22.7622 16.8165 22.6964 18.1508 21.9729C20.4153 20.742 22.5013 19.2385 24.2585 17.3405C24.9256 16.6264 25.5082 15.8371 26.1283 15.076ZM30.103 1.91164C20.6972 1.91164 11.329 1.91164 1.96086 1.91164C1.96086 2.5318 1.96086 3.12377 1.96086 3.73454C11.3478 3.73454 20.716 3.73454 30.103 3.73454C30.103 3.11437 30.103 2.5318 30.103 1.91164ZM1.95147 46.1967C11.3572 46.1967 20.7254 46.1967 30.0936 46.1967C30.0936 45.5766 30.0936 44.9846 30.0936 44.3738C20.7066 44.3738 11.3384 44.3738 1.95147 44.3738C1.95147 44.9846 1.95147 45.5766 1.95147 46.1967ZM23.1027 42.4476C19.8422 39.0367 12.015 39.0367 9.01754 42.4476C13.7063 42.4476 18.3763 42.4476 23.1027 42.4476Z" fill="#6A7980"/>
<path d="M16.9574 34.113C16.9574 34.2821 16.9668 34.4607 16.9574 34.6298C16.9104 35.1278 16.5064 35.5037 16.0272 35.5037C15.5479 35.5037 15.1345 35.1278 15.0969 34.6298C15.0687 34.3009 15.0781 33.9721 15.0875 33.6526C15.1063 33.0794 15.4916 32.6942 16.0178 32.6942C16.5534 32.6942 16.9292 33.07 16.9574 33.6432C16.9762 33.7935 16.9668 33.9533 16.9574 34.113C16.9668 34.113 16.9668 34.113 16.9574 34.113Z" fill="#6A7980"/>
<path d="M15.0877 28.7947C15.0877 28.6349 15.0783 28.4846 15.0877 28.3248C15.1253 27.7892 15.5293 27.4228 16.0367 27.4322C16.5253 27.4416 16.92 27.7986 16.9575 28.3154C16.9763 28.6537 16.9763 29.0014 16.9575 29.3396C16.9294 29.8658 16.5065 30.2511 16.0085 30.2417C15.5105 30.2323 15.1159 29.8377 15.0877 29.3115C15.0783 29.1423 15.0877 28.9638 15.0877 28.7947Z" fill="#6A7980"/>
<path d="M6.24552 30.0632C6.23613 29.5276 6.64017 29.1141 7.17576 29.1141C7.68317 29.1141 8.106 29.5182 8.1154 30.0256C8.1248 30.533 7.67377 30.9934 7.16637 30.984C6.66836 30.984 6.25492 30.5706 6.24552 30.0632Z" fill="#6A7980"/>
</svg>
