<svg width="53" height="54" viewBox="0 0 53 54" fill="none" xmlns="http://www.w3.org/2000/svg">
<path d="M14.9108 53.9855C14.1424 53.3809 14.1198 52.9107 14.8204 52.2166C15.4758 51.5784 16.1312 50.9403 16.9109 50.179C16.5719 50.179 16.3911 50.179 16.2103 50.179C13.6452 50.179 11.0688 50.1902 8.50366 50.179C6.57135 50.1678 5.04585 49.4065 4.20964 47.6375C3.91584 47.0218 3.76894 46.2941 3.74634 45.6111C3.67854 43.9094 3.72374 42.2076 3.72374 40.5059C3.72374 40.3828 3.73504 40.2596 3.75764 40.1365C3.85934 39.6998 4.15314 39.4647 4.58255 39.4535C5.02325 39.4423 5.33965 39.655 5.45265 40.0805C5.50915 40.2932 5.52045 40.5283 5.52045 40.7522C5.52045 42.3196 5.52045 43.8758 5.52045 45.4432C5.53175 47.3017 6.62785 48.3877 8.50366 48.3877C11.114 48.3877 13.713 48.3877 16.3233 48.3877C16.4589 48.3877 16.5945 48.3877 16.8996 48.3877C16.3007 47.7943 15.7922 47.2905 15.2837 46.7867C15.0351 46.5404 14.7639 46.3053 14.5492 46.0254C14.2328 45.6447 14.278 45.1521 14.6057 44.8274C14.9334 44.514 15.4645 44.458 15.8035 44.7938C17.1256 46.0702 18.4251 47.3577 19.7133 48.6675C20.0975 49.0594 20.0523 49.552 19.6229 49.9774C18.2782 51.3209 16.9109 52.642 15.5549 53.9743C15.3402 53.9855 15.1255 53.9855 14.9108 53.9855Z" fill="#73828D"/>
<path d="M29.0133 16.1441C29.2845 16.1441 29.4992 16.1441 29.7026 16.1441C34.4486 16.1441 39.206 16.1553 43.952 16.1329C44.5057 16.1329 44.9238 16.3009 45.3193 16.6927C47.5228 18.8983 49.7489 21.1038 51.975 23.287C52.3592 23.6676 52.5174 24.0707 52.5174 24.5969C52.5061 32.7137 52.5174 40.8306 52.5061 48.9474C52.5061 51.3321 51.3083 52.9891 49.1274 53.5824C48.6754 53.7056 48.1895 53.7616 47.7149 53.7616C41.2739 53.7728 34.8441 53.7728 28.4031 53.7728C26.0301 53.7728 24.3012 52.4965 23.7362 50.3133C23.6119 49.8431 23.6006 49.3393 23.6006 48.8467C23.5893 45.3312 23.5893 41.8158 23.5893 38.3116C23.5893 38.11 23.5893 37.8973 23.5893 37.651C23.3181 37.651 23.1034 37.651 22.9 37.651C16.911 37.651 10.9107 37.651 4.92165 37.651C2.96674 37.651 1.41864 36.8897 0.582434 35.0984C0.277333 34.4379 0.119133 33.643 0.119133 32.9152C0.0739328 23.5221 0.0852328 14.1401 0.0965328 4.75816C0.0965328 1.89207 2.01754 0.0223913 4.91035 0.0111957C10.1197 0.0111957 15.3403 0.0111957 20.5496 0C21.0242 0 21.3971 0.145544 21.7361 0.481413C23.9848 2.72055 26.2448 4.95968 28.5048 7.18761C28.8777 7.54587 29.0246 7.94892 29.0133 8.45272C29.002 10.7926 29.0133 13.1213 29.0133 15.4612C29.0133 15.6739 29.0133 15.8754 29.0133 16.1441ZM43.4661 17.9354C43.2062 17.9354 43.0141 17.9354 42.8333 17.9354C38.042 17.9354 33.2621 17.9354 28.4709 17.9354C26.4595 17.9354 25.3973 18.9878 25.3973 20.9919C25.3973 30.2955 25.3973 39.6102 25.3973 48.9138C25.3973 49.2609 25.4086 49.6192 25.499 49.955C25.8267 51.2313 26.8889 51.9591 28.3805 51.9591C34.7763 51.9591 41.1835 51.9591 47.5793 51.9591C49.6246 51.9591 50.6868 50.9067 50.6868 48.8691C50.6868 41.1441 50.6868 33.419 50.6868 25.6828C50.6868 25.4925 50.6755 25.3134 50.6642 25.1455C50.5851 25.1119 50.5512 25.0895 50.5173 25.0895C49.2178 25.0895 47.9296 25.0783 46.6301 25.0783C44.517 25.0783 43.4548 24.0371 43.4548 21.9435C43.4661 20.656 43.4661 19.3349 43.4661 17.9354ZM23.5893 35.8485C23.5893 35.5798 23.5893 35.3671 23.5893 35.1656C23.5893 30.4298 23.5893 25.6828 23.5893 20.9471C23.5893 18.6296 24.6967 17.0734 26.8324 16.3569C27.1714 16.2449 27.194 16.0546 27.194 15.7635C27.1827 14.0729 27.194 12.3936 27.194 10.7031C27.194 10.1433 27.194 9.58348 27.194 8.96772C26.968 8.96772 26.7985 8.96772 26.6177 8.96772C25.3747 8.96772 24.1317 8.96772 22.9 8.96772C21.1146 8.95653 20.0072 7.89294 19.9733 6.13522C19.9507 4.93729 19.9733 3.75055 19.9733 2.55261C19.9733 2.3175 19.9733 2.0712 19.9733 1.8025C19.736 1.8025 19.5778 1.8025 19.4196 1.8025C14.5832 1.8025 9.74676 1.8025 4.89905 1.8025C2.98934 1.8025 1.89324 2.87728 1.89324 4.76935C1.89324 14.1289 1.89324 23.4885 1.89324 32.8481C1.89324 33.1839 1.90454 33.5198 1.99494 33.8333C2.33394 35.1096 3.38484 35.8373 4.88775 35.8373C10.9333 35.8373 16.9788 35.8373 23.013 35.8373C23.1825 35.8485 23.3407 35.8485 23.5893 35.8485ZM49.1839 23.2982C47.8844 22.0107 46.5736 20.712 45.2967 19.4469C45.2967 20.3873 45.2741 21.4173 45.308 22.4473C45.3306 22.9735 45.6696 23.2758 46.212 23.2982C47.229 23.3206 48.246 23.2982 49.1839 23.2982ZM25.6798 7.17642C24.4029 5.90011 23.0921 4.60142 21.8152 3.31392C21.8152 4.29913 21.7926 5.34033 21.8265 6.39272C21.8378 6.86294 22.1768 7.14283 22.6288 7.16522C23.6684 7.19881 24.7306 7.17642 25.6798 7.17642Z" fill="#73828D"/>
<path d="M35.7142 6.30316C36.4261 7.00848 37.0476 7.61305 37.6578 8.21762C37.7821 8.34077 37.9177 8.46392 38.0307 8.59827C38.3697 9.00131 38.3471 9.49392 38.0081 9.82979C37.6804 10.1545 37.1493 10.1992 36.799 9.86338C35.4769 8.58707 34.1774 7.29957 32.8892 5.98968C32.5389 5.63142 32.5163 5.1612 32.8779 4.80294C34.1661 3.49305 35.4656 2.20555 36.7877 0.929241C37.1606 0.57098 37.703 0.626958 38.0307 0.974024C38.3697 1.32109 38.381 1.82489 38.0081 2.20555C37.4431 2.81011 36.8329 3.38109 36.2566 3.96327C36.121 4.09761 35.9967 4.23196 35.782 4.46707C36.0871 4.47827 36.2905 4.50066 36.4939 4.50066C39.0138 4.50066 41.5337 4.50066 44.0424 4.50066C46.0199 4.50066 47.568 5.26196 48.4268 7.07566C48.7206 7.70262 48.8562 8.45272 48.8788 9.15805C48.9353 11.1061 48.9014 13.0541 48.9014 15.0022C48.9014 15.1589 48.9014 15.3269 48.8562 15.4724C48.7432 15.8978 48.4268 16.1218 47.9974 16.1218C47.5906 16.1218 47.2742 15.909 47.1612 15.5172C47.0934 15.2821 47.0934 15.0358 47.0934 14.7895C47.0934 12.9646 47.0934 11.1397 47.0934 9.31479C47.0821 7.38914 46.0086 6.30316 44.0763 6.30316C41.4659 6.29196 38.8669 6.30316 36.2566 6.30316C36.121 6.28077 36.008 6.29196 35.7142 6.30316Z" fill="#73828D"/>
<path d="M38.0308 28.8086C40.5959 28.8086 43.1723 28.8086 45.7375 28.8086C45.9296 28.8086 46.133 28.7974 46.3251 28.8421C46.7432 28.9317 47.0144 29.2004 47.037 29.637C47.0596 30.0961 46.8449 30.4207 46.3929 30.5439C46.1782 30.5999 45.9409 30.5999 45.7149 30.5999C40.5959 30.5999 35.4657 30.5999 30.3468 30.5999C29.4315 30.5999 29.0021 30.2976 29.0134 29.6818C29.0247 29.0773 29.4315 28.8086 30.3242 28.8086C32.8893 28.8086 35.4544 28.8086 38.0308 28.8086Z" fill="#73828D"/>
<path d="M38.0986 34.0572C40.6524 34.0572 43.2062 34.0572 45.76 34.0572C45.9521 34.0572 46.1555 34.046 46.3476 34.0796C46.777 34.1691 47.0369 34.4378 47.0595 34.8745C47.0821 35.3111 46.89 35.6358 46.4606 35.7589C46.2346 35.8261 45.9747 35.8373 45.7261 35.8373C40.6072 35.8373 35.477 35.8373 30.3581 35.8373C30.2564 35.8373 30.1434 35.8373 30.0417 35.8373C29.4089 35.8037 29.0247 35.4566 29.0247 34.9193C29.036 34.3819 29.4089 34.046 30.0643 34.046C32.7537 34.0572 35.4318 34.0572 38.0986 34.0572Z" fill="#73828D"/>
<path d="M38.0756 39.4311C40.6407 39.4311 43.2171 39.4311 45.7822 39.4311C45.9743 39.4311 46.1777 39.4199 46.3585 39.4647C46.7766 39.5654 47.0365 39.8341 47.0591 40.282C47.0704 40.7186 46.867 41.0321 46.4376 41.1552C46.2342 41.2112 46.0195 41.2224 45.8048 41.2224C40.6294 41.2224 35.454 41.2224 30.2786 41.2224C30.0978 41.2224 29.917 41.2224 29.7475 41.1888C29.2729 41.0768 29.013 40.7746 29.0243 40.2931C29.0356 39.8453 29.352 39.5095 29.8153 39.4535C29.9848 39.4311 30.1656 39.4423 30.3464 39.4423C32.9341 39.4311 35.4992 39.4311 38.0756 39.4311Z" fill="#73828D"/>
<path d="M37.0927 44.805C39.3979 44.805 41.7031 44.805 44.0083 44.805C44.1891 44.805 44.3699 44.7938 44.5394 44.8274C44.9688 44.917 45.2287 45.1857 45.2513 45.6223C45.2852 46.0589 45.0818 46.3724 44.6524 46.5068C44.4377 46.5739 44.2004 46.5851 43.9744 46.5851C39.4205 46.5851 34.8666 46.5851 30.3127 46.5851C30.098 46.5851 29.8833 46.574 29.6799 46.518C29.2279 46.3948 29.0019 46.0701 29.0358 45.6111C29.0697 45.1409 29.3522 44.8834 29.8042 44.805C29.9737 44.7714 30.1545 44.7938 30.3353 44.7938C32.584 44.805 34.844 44.805 37.0927 44.805Z" fill="#73828D"/>
<path d="M34.4486 23.3094C35.9063 23.3094 37.3527 23.2982 38.8104 23.3094C39.5223 23.3094 39.9178 23.7348 39.8161 24.3506C39.737 24.8208 39.3754 25.0895 38.7539 25.0895C37.0137 25.1007 35.2735 25.0895 33.5446 25.0895C32.4146 25.0895 31.2733 25.0895 30.1433 25.0895C29.4201 25.0895 29.0246 24.7424 29.0359 24.1603C29.0472 23.6117 29.4427 23.2982 30.1433 23.2982C31.5784 23.3094 33.0135 23.3094 34.4486 23.3094Z" fill="#73828D"/>
<path d="M48.9238 46.7531C48.8786 47.2233 48.9012 47.7047 48.7882 48.1637C48.5057 49.3393 47.5113 50.1006 46.2344 50.1677C45.6468 50.2013 45.0705 50.1901 44.4829 50.1789C43.8501 50.1565 43.4772 49.7871 43.4885 49.2497C43.4998 48.7347 43.8727 48.41 44.4942 48.3876C44.9688 48.3764 45.4547 48.3876 45.9293 48.3876C46.7542 48.3764 47.0706 48.063 47.0819 47.2345C47.0932 46.7755 47.0706 46.3276 47.0932 45.8686C47.1158 45.1969 47.4661 44.805 48.0198 44.8162C48.5509 44.8274 48.8673 45.2081 48.8899 45.8574C48.9012 46.1597 48.8899 46.4508 48.8899 46.7531C48.9012 46.7531 48.9125 46.7531 48.9238 46.7531Z" fill="#73828D"/>
<path d="M14.5946 12.5615C17.1484 12.5615 19.7022 12.5615 22.256 12.5615C22.4142 12.5615 22.5724 12.5503 22.7306 12.5727C23.2278 12.6287 23.5555 12.9758 23.5668 13.4348C23.5781 13.8938 23.2617 14.2633 22.7645 14.3304C22.595 14.3528 22.4142 14.3528 22.2334 14.3528C17.1145 14.3528 11.9843 14.3528 6.86536 14.3528C5.95006 14.3528 5.52066 14.0617 5.53196 13.446C5.54326 12.8302 5.95006 12.5615 6.88796 12.5615C9.45307 12.5615 12.0182 12.5615 14.5946 12.5615Z" fill="#73828D"/>
<path d="M13.6338 17.9354C15.9164 17.9354 18.2103 17.9354 20.4929 17.9354C20.685 17.9354 20.8884 17.9242 21.0692 17.9802C21.4986 18.0922 21.7359 18.3721 21.7472 18.8087C21.7585 19.2453 21.5325 19.5476 21.1031 19.6708C20.9223 19.7268 20.7189 19.7268 20.5268 19.7268C15.939 19.7268 11.3399 19.7268 6.75205 19.7268C6.55995 19.7268 6.35655 19.7268 6.17575 19.6708C5.72375 19.5476 5.49775 19.2341 5.53165 18.7639C5.55425 18.3161 5.82545 18.0586 6.24355 17.9578C6.43565 17.9131 6.62775 17.9242 6.83115 17.9242C9.09116 17.9354 11.3625 17.9354 13.6338 17.9354Z" fill="#73828D"/>
<path d="M13.6902 23.3093C15.9615 23.3093 18.2329 23.3093 20.4929 23.3093C20.685 23.3093 20.8884 23.2982 21.0692 23.3429C21.4647 23.4437 21.7133 23.7012 21.7359 24.1266C21.7698 24.5633 21.5664 24.8879 21.1483 25.0111C20.9336 25.0783 20.6963 25.0895 20.4703 25.0895C15.9163 25.0895 11.3624 25.0895 6.79722 25.0895C6.61642 25.0895 6.43562 25.0895 6.26612 25.0671C5.76892 24.9775 5.48642 24.608 5.52032 24.1378C5.54292 23.69 5.85932 23.3765 6.33392 23.3205C6.49212 23.2982 6.65032 23.3093 6.80852 23.3093C9.11373 23.3093 11.4076 23.3093 13.6902 23.3093Z" fill="#73828D"/>
<path d="M13.6227 28.6833C15.894 28.6833 18.1653 28.6833 20.4253 28.6833C20.5835 28.6833 20.7417 28.6721 20.8999 28.6945C21.4084 28.7505 21.7248 29.0863 21.7474 29.5453C21.7587 30.0044 21.4536 30.3626 20.9564 30.4522C20.866 30.4634 20.7756 30.4746 20.6965 30.4746C15.9844 30.4746 11.261 30.4746 6.54885 30.4746C5.97255 30.4746 5.61094 30.1947 5.54314 29.7357C5.44144 29.1199 5.83695 28.6945 6.54885 28.6945C8.19865 28.6833 9.84846 28.6945 11.4983 28.6945C12.2102 28.6833 12.9221 28.6833 13.6227 28.6833Z" fill="#73828D"/>
<path d="M10.9219 8.97892C9.48676 8.97892 8.05166 9.00131 6.61655 8.96772C6.31145 8.95653 5.92725 8.82218 5.73515 8.60946C5.56565 8.41914 5.49785 7.96011 5.62215 7.7474C5.76905 7.4899 6.14195 7.25479 6.44705 7.21C7.05725 7.13163 7.69005 7.18761 8.30026 7.18761C10.5151 7.18761 12.7299 7.18761 14.9447 7.18761C15.0916 7.18761 15.2272 7.18761 15.3741 7.18761C15.973 7.2212 16.3459 7.57946 16.3346 8.09446C16.3233 8.59827 15.9617 8.94533 15.3967 8.96772C14.6509 8.99011 13.9051 8.97892 13.1593 8.97892C12.4135 8.97892 11.6677 8.97892 10.9219 8.97892Z" fill="#73828D"/>
</svg>
